<svg width="16" height="16" viewBox="0 0 16 16" fill="none" xmlns="http://www.w3.org/2000/svg">
<path d="M6.33333 7.33333C6.88562 7.33333 7.33333 6.88562 7.33333 6.33333C7.33333 5.78105 6.88562 5.33333 6.33333 5.33333C5.78105 5.33333 5.33333 5.78105 5.33333 6.33333C5.33333 6.88562 5.78105 7.33333 6.33333 7.33333Z" fill="white"/>
<path d="M12.3333 2C12.8856 2 13.3333 1.55228 13.3333 1C13.3333 0.447715 12.8856 0 12.3333 0C11.781 0 11.3333 0.447715 11.3333 1C11.3333 1.55228 11.781 2 12.3333 2Z" fill="white"/>
<path d="M14.3333 5.33333C14.8856 5.33333 15.3333 4.88562 15.3333 4.33333C15.3333 3.78105 14.8856 3.33333 14.3333 3.33333C13.781 3.33333 13.3333 3.78105 13.3333 4.33333C13.3333 4.88562 13.781 5.33333 14.3333 5.33333Z" fill="white"/>
<path d="M6.33333 10.6667C6.88562 10.6667 7.33333 10.2189 7.33333 9.66666C7.33333 9.11438 6.88562 8.66666 6.33333 8.66666C5.78105 8.66666 5.33333 9.11438 5.33333 9.66666C5.33333 10.2189 5.78105 10.6667 6.33333 10.6667Z" fill="white"/>
<path d="M9.66667 10.6667C10.2189 10.6667 10.6667 10.2189 10.6667 9.66666C10.6667 9.11438 10.2189 8.66666 9.66667 8.66666C9.11438 8.66666 8.66667 9.11438 8.66667 9.66666C8.66667 10.2189 9.11438 10.6667 9.66667 10.6667Z" fill="white"/>
<path d="M15.962 7.236C15.9472 7.08187 15.8793 6.9377 15.7698 6.82822C15.6603 6.71874 15.5161 6.65077 15.362 6.636C13.8218 6.4876 12.3811 5.80805 11.287 4.71384C10.1929 3.61963 9.51356 2.17891 9.36534 0.638667C9.35056 0.484543 9.2826 0.340368 9.17312 0.230886C9.06363 0.121404 8.91946 0.0534432 8.76534 0.0386669C8.51267 0.0140002 8.258 2.38418e-07 8 2.38418e-07C6.41775 2.38418e-07 4.87103 0.469192 3.55544 1.34824C2.23985 2.22729 1.21447 3.47672 0.608967 4.93853C0.00346631 6.40034 -0.15496 8.00887 0.153721 9.56072C0.462403 11.1126 1.22433 12.538 2.34315 13.6569C3.46197 14.7757 4.88743 15.5376 6.43928 15.8463C7.99113 16.155 9.59966 15.9965 11.0615 15.391C12.5233 14.7855 13.7727 13.7602 14.6518 12.4446C15.5308 11.129 16 9.58225 16 8C16 7.742 15.986 7.48733 15.962 7.236ZM8 14.6667C6.23189 14.6667 4.5362 13.9643 3.28596 12.714C2.03572 11.4638 1.33334 9.76811 1.33334 8C1.33334 6.23189 2.03572 4.5362 3.28596 3.28595C4.5362 2.03571 6.23189 1.33333 8 1.33333H8.11334C8.39093 2.9705 9.17084 4.4808 10.345 5.65498C11.5192 6.82916 13.0295 7.60907 14.6667 7.88666C14.6667 7.92466 14.6667 7.962 14.6667 8C14.6647 9.76751 13.9617 11.4621 12.7119 12.7119C11.4621 13.9617 9.76752 14.6647 8 14.6667Z" fill="white"/>
</svg>
