<svg width="17" height="12" viewBox="0 0 17 12" fill="none" xmlns="http://www.w3.org/2000/svg">
<path d="M1 4C1 3.04306 1.00106 2.37565 1.06876 1.87208C1.13453 1.3829 1.25483 1.12385 1.43934 0.93934C1.62385 0.754831 1.8829 0.634534 2.37208 0.568765C2.87565 0.501062 3.54306 0.5 4.5 0.5H12.5C13.4569 0.5 14.1244 0.501062 14.6279 0.568765C15.1171 0.634534 15.3762 0.754831 15.5607 0.93934C15.7452 1.12385 15.8655 1.3829 15.9312 1.87208C15.9989 2.37565 16 3.04306 16 4V8C16 8.95694 15.9989 9.62435 15.9312 10.1279C15.8655 10.6171 15.7452 10.8762 15.5607 11.0607C15.3762 11.2452 15.1171 11.3655 14.6279 11.4312C14.1244 11.4989 13.4569 11.5 12.5 11.5H4.5C3.54306 11.5 2.87565 11.4989 2.37208 11.4312C1.8829 11.3655 1.62385 11.2452 1.43934 11.0607C1.25483 10.8762 1.13453 10.6171 1.06876 10.1279C1.00106 9.62435 1 8.95694 1 8V4Z" stroke="white"/>
</svg>
