<svg width="16" height="13" viewBox="0 0 16 13" fill="none" xmlns="http://www.w3.org/2000/svg">
<path d="M0.5 4.5C0.5 3.54306 0.501062 2.87565 0.568765 2.37208C0.634534 1.8829 0.754831 1.62385 0.93934 1.43934C1.12385 1.25483 1.3829 1.13453 1.87208 1.06876C2.37565 1.00106 3.04306 1 4 1H12C12.9569 1 13.6244 1.00106 14.1279 1.06876C14.6171 1.13453 14.8762 1.25483 15.0607 1.43934C15.2452 1.62385 15.3655 1.8829 15.4312 2.37208C15.4989 2.87565 15.5 3.54306 15.5 4.5V8.5C15.5 9.45694 15.4989 10.1244 15.4312 10.6279C15.3655 11.1171 15.2452 11.3762 15.0607 11.5607C14.8762 11.7452 14.6171 11.8655 14.1279 11.9312C13.6244 11.9989 12.9569 12 12 12H4C3.04306 12 2.37565 11.9989 1.87208 11.9312C1.3829 11.8655 1.12385 11.7452 0.93934 11.5607C0.754831 11.3762 0.634534 11.1171 0.568765 10.6279C0.501062 10.1244 0.5 9.45694 0.5 8.5V4.5Z" stroke="white"/>
</svg>
