<svg width="17" height="12" viewBox="0 0 17 12" fill="none" xmlns="http://www.w3.org/2000/svg">
<mask id="path-1-inside-1_24_257" fill="white">
<path d="M0.5 4C0.5 2.11438 0.5 1.17157 1.08579 0.585786C1.67157 0 2.61438 0 4.5 0H12.5C14.3856 0 15.3284 0 15.9142 0.585786C16.5 1.17157 16.5 2.11438 16.5 4V8C16.5 9.88562 16.5 10.8284 15.9142 11.4142C15.3284 12 14.3856 12 12.5 12H4.5C2.61438 12 1.67157 12 1.08579 11.4142C0.5 10.8284 0.5 9.88562 0.5 8V4Z"/>
</mask>
<path d="M7.60557 6.55279L7.38197 7L7.60557 6.55279ZM0.276393 3.44721L7.38197 7L7.82918 6.10557L0.723607 2.55279L0.276393 3.44721ZM9.61803 7L16.7236 3.44721L16.2764 2.55279L9.17082 6.10557L9.61803 7ZM7.38197 7C8.08579 7.35191 8.91422 7.35191 9.61803 7L9.17082 6.10557C8.74853 6.31672 8.25147 6.31672 7.82918 6.10557L7.38197 7ZM4.5 1H12.5V-1H4.5V1ZM15.5 4V8H17.5V4H15.5ZM12.5 11H4.5V13H12.5V11ZM1.5 8V4H-0.5V8H1.5ZM4.5 11C3.52892 11 2.90121 10.9979 2.4387 10.9357C2.00496 10.8774 1.86902 10.7832 1.79289 10.7071L0.37868 12.1213C0.888342 12.631 1.51669 12.8297 2.17221 12.9179C2.79896 13.0021 3.58546 13 4.5 13V11ZM-0.5 8C-0.5 8.91454 -0.502124 9.70104 -0.417859 10.3278C-0.329728 10.9833 -0.130982 11.6117 0.37868 12.1213L1.79289 10.7071C1.71677 10.631 1.62262 10.495 1.56431 10.0613C1.50212 9.59879 1.5 8.97108 1.5 8H-0.5ZM15.5 8C15.5 8.97108 15.4979 9.59879 15.4357 10.0613C15.3774 10.495 15.2832 10.631 15.2071 10.7071L16.6213 12.1213C17.131 11.6117 17.3297 10.9833 17.4179 10.3278C17.5021 9.70104 17.5 8.91454 17.5 8H15.5ZM12.5 13C13.4145 13 14.201 13.0021 14.8278 12.9179C15.4833 12.8297 16.1117 12.631 16.6213 12.1213L15.2071 10.7071C15.131 10.7832 14.995 10.8774 14.5613 10.9357C14.0988 10.9979 13.4711 11 12.5 11V13ZM12.5 1C13.4711 1 14.0988 1.00212 14.5613 1.06431C14.995 1.12262 15.131 1.21677 15.2071 1.29289L16.6213 -0.12132C16.1117 -0.630982 15.4833 -0.829728 14.8278 -0.917859C14.201 -1.00212 13.4145 -1 12.5 -1V1ZM17.5 4C17.5 3.08546 17.5021 2.29896 17.4179 1.67221C17.3297 1.01669 17.131 0.388342 16.6213 -0.12132L15.2071 1.29289C15.2832 1.36902 15.3774 1.50496 15.4357 1.9387C15.4979 2.40121 15.5 3.02892 15.5 4H17.5ZM4.5 -1C3.58546 -1 2.79896 -1.00212 2.17221 -0.917859C1.51669 -0.829728 0.888342 -0.630983 0.37868 -0.12132L1.79289 1.29289C1.86902 1.21677 2.00496 1.12262 2.4387 1.06431C2.90121 1.00212 3.52892 1 4.5 1V-1ZM1.5 4C1.5 3.02892 1.50212 2.40121 1.56431 1.9387C1.62262 1.50496 1.71677 1.36902 1.79289 1.29289L0.37868 -0.12132C-0.130983 0.388342 -0.329728 1.01669 -0.417859 1.67221C-0.502124 2.29896 -0.5 3.08546 -0.5 4H1.5Z" fill="black" mask="url(#path-1-inside-1_24_257)"/>
</svg>
