<svg width="20" height="20" viewBox="0 0 20 20" fill="none" xmlns="http://www.w3.org/2000/svg">
<path fill-rule="evenodd" clip-rule="evenodd" d="M10.2239 0.5C7.98705 0.5 6.06316 1.83526 5.20377 3.75007C5.12115 3.93416 5.06262 4.06452 5.0175 4.15941C4.99516 4.20638 4.97839 4.23984 4.96555 4.26371C4.95601 4.28147 4.9509 4.28965 4.94976 4.29149C4.88076 4.38787 4.84406 4.41763 4.82279 4.4314C4.80144 4.44522 4.75947 4.46657 4.64221 4.49017C4.60669 4.49732 4.53292 4.5 4.22388 4.5C2.29088 4.5 0.723877 6.067 0.723877 8C0.723877 9.933 2.29088 11.5 4.22388 11.5H4.89545L5.89545 10.5H4.22388C2.84316 10.5 1.72388 9.38071 1.72388 8C1.72388 6.61929 2.84316 5.5 4.22388 5.5L4.27744 5.50003C4.50345 5.50021 4.69126 5.50035 4.83953 5.47051C5.02029 5.43413 5.19809 5.37969 5.36618 5.27088C5.53427 5.16208 5.65674 5.02216 5.76395 4.87214C5.82185 4.79112 5.87354 4.68782 5.92061 4.58881C5.97103 4.48277 6.03407 4.34231 6.11342 4.1655L6.1161 4.15954C6.82012 2.59089 8.39514 1.5 10.2239 1.5C12.0526 1.5 13.6276 2.59089 14.3317 4.15954L14.3344 4.16566C14.4137 4.3424 14.4767 4.4828 14.5271 4.58881C14.5742 4.68782 14.6259 4.79112 14.6838 4.87214C14.791 5.02216 14.9135 5.16208 15.0816 5.27088C15.2497 5.37969 15.4275 5.43413 15.6082 5.47051C15.7565 5.50035 15.9443 5.50021 16.1703 5.50003L16.2239 5.5C17.6046 5.5 18.7239 6.61929 18.7239 8C18.7239 9.38071 17.6046 10.5 16.2239 10.5H14.5523L15.5523 11.5H16.2239C18.1569 11.5 19.7239 9.933 19.7239 8C19.7239 6.067 18.1569 4.5 16.2239 4.5C15.9148 4.5 15.8411 4.49732 15.8055 4.49017C15.6883 4.46657 15.6463 4.44522 15.625 4.4314C15.6037 4.41763 15.5672 4.38826 15.4982 4.29188C15.4971 4.29006 15.4918 4.2815 15.4822 4.26371C15.4694 4.23984 15.4526 4.20638 15.4303 4.15941C15.3851 4.06452 15.3266 3.93416 15.244 3.75007C14.3846 1.83526 12.4607 0.5 10.2239 0.5Z" fill="#1CA0E1"/>
<path fill-rule="evenodd" clip-rule="evenodd" d="M5.87032 13.6464L6.57743 14.3536L9.72388 11.2071V19C9.72388 19.2761 9.94773 19.5 10.2239 19.5C10.5 19.5 10.7239 19.2761 10.7239 19V11.2071L13.8703 14.3536L14.5774 13.6464L10.2239 9.29289L5.87032 13.6464Z" fill="#1CA0E1"/>
</svg>
