<svg width="27" height="32" viewBox="0 0 27 32" fill="none" xmlns="http://www.w3.org/2000/svg">
<path fill-rule="evenodd" clip-rule="evenodd" d="M13.8118 1.91559C13.525 1.64613 13.0971 1.64613 12.8103 1.91559C11.3383 3.29863 8.62562 6.02533 6.28696 9.348C3.93202 12.6938 2.04437 16.5213 2.04437 20.128C2.04437 25.6711 7.01767 30.2865 13.311 30.2865C19.6044 30.2865 24.5777 25.6711 24.5777 20.128C24.5777 16.5213 22.6901 12.6938 20.3351 9.348C17.9964 6.02533 15.2838 3.29863 13.8118 1.91559ZM11.6162 0.673585C12.5721 -0.224527 14.05 -0.22453 15.0059 0.673584C16.5203 2.09651 19.3254 4.91337 21.7579 8.36935C24.1741 11.8022 26.311 15.9884 26.311 20.128C26.311 26.7519 20.4198 32 13.311 32C6.20229 32 0.311035 26.7519 0.311035 20.128C0.311035 15.9884 2.44793 11.8022 4.86415 8.36935C7.29665 4.91338 10.1017 2.09651 11.6162 0.673585ZM6.3777 18.2921C6.85635 18.2921 7.24437 18.6756 7.24437 19.1488C7.24437 19.9364 7.40129 20.7162 7.70617 21.4439C8.01104 22.1715 8.45791 22.8326 9.02125 23.3895C9.5846 23.9464 10.2534 24.3881 10.9894 24.6895C11.7255 24.9909 12.5143 25.146 13.311 25.146C13.7897 25.146 14.1777 25.5296 14.1777 26.0028C14.1777 26.4759 13.7897 26.8595 13.311 26.8595C12.2867 26.8595 11.2724 26.6601 10.3261 26.2726C9.37976 25.8851 8.5199 25.3171 7.7956 24.6011C7.0713 23.8851 6.49676 23.0351 6.10477 22.0996C5.71279 21.1641 5.51103 20.1614 5.51103 19.1488C5.51103 18.6756 5.89906 18.2921 6.3777 18.2921Z" fill="#E90A8A"/>
</svg>
