<?xml version="1.0" encoding="utf-8"?>
<!-- Generator: Adobe Illustrator 26.3.1, SVG Export Plug-In . SVG Version: 6.00 Build 0)  -->
<svg version="1.1" id="Warstwa_1" xmlns="http://www.w3.org/2000/svg" xmlns:xlink="http://www.w3.org/1999/xlink" x="0px" y="0px"
	 viewBox="0 0 182 182" style="enable-background:new 0 0 182 182;" xml:space="preserve">
<style type="text/css">
	.st0{fill:#1CA0E1;fill-opacity:0.3;}
</style>
<g>
	<path class="st0" d="M119.9,21.2L32.2,61.5L2.1,143.3l16,1.9l-16.7-1.5v4.7l83,13l-0.3-9L66.2,150l52.2-112.9l33.5,105.2l3.2-1.4
		L119.9,21.2z"/>
	<path d="M181.5,142.5c0-0.1,0-0.2-0.1-0.3c0,0-0.1-0.1-0.1-0.1c0-0.1-0.1-0.2-0.2-0.2c0,0,0,0,0,0c0,0-0.1,0-0.1-0.1
		c-0.1-0.1-0.1-0.1-0.2-0.1c0,0-0.1,0-0.1,0c-0.1,0-0.1,0-0.2,0l-24.7-0.6L121.6,20.3c0,0,0,0,0,0c-0.1-0.2-0.2-0.4-0.4-0.5
		c-0.1,0-0.1-0.1-0.2-0.1c-0.2-0.1-0.4-0.1-0.6-0.1c0,0-0.1,0-0.2,0c0,0-0.1,0-0.1,0l-73,34l-5.6,2.5l-10,4.8
		c-0.3,0.1-0.4,0.3-0.5,0.6L0.6,143c0,0,0,0.1,0,0.1c0,0.1-0.1,0.2-0.1,0.3v4.7c0,0.5,0.4,1,0.9,1.1l82.7,13.3c0,0,0.1,0,0.2,0
		c0,0,0.1,0,0.1,0l96.2-12.4c0.5-0.1,0.9-0.5,0.9-1.1v-6.5C181.5,142.6,181.5,142.5,181.5,142.5L181.5,142.5z M120.4,23.6L153.7,141
		l-1,0.1L119.8,36.3c-0.1-0.4-0.5-0.7-0.9-0.7c-0.4,0-0.8,0.2-1,0.6l-7.6,16.4c-0.1,0.1-0.2,0.2-0.2,0.4l-44.2,95.1l-4.1,0.3
		L120.4,23.6z M111.2,55.6L129.7,99h-18.5L111.2,55.6L111.2,55.6L111.2,55.6z M110.1,99h-19l19-41V99z M110.1,100.1v44.4
		c0,0,0,0,0,0l-19.6,1.6v-46H110.1z M89.5,146.2l-21.1,1.7l21.1-45.5V146.2C89.5,146.2,89.5,146.2,89.5,146.2z M111.1,100.1h19v42.9
		l-19,1.5V100.1z M131.2,102.5l16.7,39l-16.7,1.3V102.5z M148.9,141.4l-17.8-41.6v-0.3c0-0.2-0.1-0.4-0.3-0.5l-19.1-44.7l6.9-14.8
		l31.9,101.7L148.9,141.4L148.9,141.4z M32.8,62.6l9.6-4.6l5.6-2.5l70.4-32.8l-59,125.9L3,142.5L32.8,62.6z M2.6,144.6l80.6,8.8v6.8
		l-80.6-13V144.6z M179.4,148.1l-94.1,12.1v-7.8c0-0.6-0.4-1-0.9-1.1l-13.8-1.5l84.5-6.8l7.6,0.2l-70.9,6.9c-0.6,0.1-1,0.6-0.9,1.2
		c0.1,0.6,0.6,1,1.2,1l87.4-8.5L179.4,148.1L179.4,148.1z"/>
</g>
<image style="overflow:visible;" width="526" height="526" xlink:href="../../Precision Snow Removal/Landing Page/House.png"  transform="matrix(1 0 0 1 0 1080)">
</image>
</svg>
