<?xml version="1.0" encoding="UTF-8"?><svg id="Warstwa_1" xmlns="http://www.w3.org/2000/svg" viewBox="0 0 182 182"><defs><style>.cls-1{fill:#3f3c3e;}.cls-2{fill:#10c443;opacity:.2;}</style></defs><polygon class="cls-2" points="14.64 97.52 86.11 62.24 166.85 84.44 167.26 131.88 85.85 134.95 14.64 120.76 14.64 97.52"/><path class="cls-1" d="M174.72,139.17c-.23,0-.45-.08-.62-.23-.2-.18-.32-.44-.32-.71v-55.39L56.94,49.08,1.55,96.49c-.28,.24-.68,.29-1.01,.14-.33-.15-.55-.49-.55-.85v-4.09c0-.25,.1-.48,.27-.66L56.04,34.07c.25-.26,.62-.35,.96-.24l124.34,40.24c.39,.12,.65,.49,.65,.89v62.41c0,.47-.35,.87-.82,.93l-6.33,.85s-.08,0-.12,0Zm6.33-1.79h0ZM56.72,47.09c.09,0,.17,.01,.26,.04l118.01,34.1c.4,.12,.68,.49,.68,.9v55.02l4.45-.6v-60.9L56.98,35.8,1.88,92.07v1.66L56.1,47.32c.17-.15,.39-.23,.61-.23Z"/><path class="cls-1" d="M56.72,48.97c-.52,0-.94-.42-.94-.94v-13.3c0-.52,.42-.94,.94-.94s.94,.42,.94,.94v13.3c0,.52-.42,.94-.94,.94Z"/><path class="cls-1" d="M49.48,148.21c-.14,0-.27-.03-.4-.09L.54,125.44c-.33-.15-.54-.49-.54-.85v-3.58c0-.3,.15-.58,.39-.76,.24-.18,.56-.23,.85-.13l48.38,15.81,28.97-1.21-63.96-13.29c-.44-.09-.75-.47-.75-.92v-23.19c0-.36,.2-.69,.52-.84L85.79,61.17c.21-.1,.44-.12,.66-.06l81.54,22.17c.41,.11,.69,.48,.69,.91v47.74c0,.5-.4,.92-.9,.94l-81.49,3.41s-.06,.01-.09,0l-36.68,1.53c-.12,0-.23-.01-.33-.05L1.88,122.31v1.68l47.77,22.32,118.02-10.38c.09,0,.18,0,.26,.01l6.98,1.36c.51,.1,.84,.59,.74,1.1-.1,.51-.6,.85-1.1,.74l-6.85-1.34-118.14,10.39s-.06,0-.08,0ZM86.78,63.14c.22,.17,.37,.44,.37,.74v70.46l79.66-3.33v-46.12l-80.03-21.75ZM15.75,119.73l69.51,14.45V63.89c0-.15,.03-.28,.09-.41L15.75,97.89v21.84Z"/><path class="cls-1" d="M49.48,148.21c-.52,0-.94-.42-.94-.94v-10.4c0-.52,.42-.94,.94-.94s.94,.42,.94,.94v10.4c0,.52-.42,.94-.94,.94Z"/><path class="cls-1" d="M.94,121.95c-.5,0-.92-.4-.94-.91-.02-.52,.39-.96,.91-.98l13.87-.51h.03c.5,0,.92,.4,.94,.91,.02,.52-.39,.96-.91,.98l-13.87,.51h-.03Z"/><path class="cls-1" d="M14.81,98.25s-.07,0-.1,0l-13.87-1.53c-.52-.06-.89-.52-.83-1.04s.53-.89,1.04-.83l13.87,1.53c.52,.06,.89,.52,.83,1.04-.05,.48-.46,.84-.93,.84Z"/><path class="cls-1" d="M167.75,85.12c-.41,0-.78-.27-.9-.68-.15-.5,.14-1.02,.64-1.17l6.98-2.05c.5-.15,1.02,.14,1.17,.64,.15,.5-.14,1.02-.64,1.17l-6.98,2.05c-.09,.03-.18,.04-.26,.04Z"/><path class="cls-1" d="M110.01,134.95c-.26,0-.47-.21-.47-.47v-48.85l-22.94-2-60.19,17.61v21.3c0,.26-.21,.47-.47,.47s-.47-.21-.47-.47v-21.66c0-.21,.14-.39,.34-.45l60.61-17.73c.05-.02,.11-.03,.17-.02l23.46,2.05c.24,.02,.43,.22,.43,.47v49.28c0,.26-.21,.47-.47,.47Z"/><path class="cls-1" d="M92.71,134.95c-.26,0-.47-.21-.47-.47V64.75c0-.26,.21-.47,.47-.47s.47,.21,.47,.47v69.74c0,.26-.21,.47-.47,.47Z"/><path class="cls-1" d="M110.01,134.95c-.26,0-.47-.2-.47-.45V68.08c0-.25,.21-.45,.47-.45s.47,.2,.47,.45v66.42c0,.25-.21,.45-.47,.45Z"/><path class="cls-1" d="M86.78,83.2c0-.26,.2-.47,.45-.47l79.58,7.8c.25,0,.45,.21,.45,.47s-.2,.47-.45,.47l-79.58-7.8c-.25,0-.45-.21-.45-.47Z"/><path class="cls-1" d="M126.47,134.54c-.26,0-.47-.19-.47-.41v-61.18c0-.23,.21-.41,.47-.41s.47,.19,.47,.41v61.18c0,.23-.21,.41-.47,.41Z"/><path class="cls-1" d="M142.89,132.91c-.26,0-.47-.17-.47-.37v-55.58c0-.21,.21-.37,.47-.37s.47,.17,.47,.37v55.58c0,.21-.21,.37-.47,.37Z"/><path class="cls-1" d="M157.64,132.91c-.26,0-.47-.15-.47-.34v-51.03c0-.19,.21-.34,.47-.34s.47,.15,.47,.34v51.03c0,.19-.21,.34-.47,.34Z"/><path class="cls-1" d="M75.08,132.91c-.26,0-.47-.21-.47-.47V67.65c0-.26,.21-.47,.47-.47s.47,.21,.47,.47v64.79c0,.26-.21,.47-.47,.47Z"/><path class="cls-1" d="M53.5,128.81c-.26,0-.47-.21-.47-.47v-49.45c0-.26,.21-.47,.47-.47s.47,.21,.47,.47v49.45c0,.26-.21,.47-.47,.47Z"/><path class="cls-1" d="M70.28,131.88c-.26,0-.47-.21-.47-.47v-61.79c0-.26,.21-.47,.47-.47s.47,.21,.47,.47v61.79c0,.26-.21,.47-.47,.47Z"/><path class="cls-1" d="M47.34,126.94c-.26,0-.47-.21-.47-.47v-44.87c0-.26,.21-.47,.47-.47s.47,.21,.47,.47v44.87c0,.26-.21,.47-.47,.47Z"/><path class="cls-1" d="M39.46,125.74c-.26,0-.47-.21-.47-.47v-39.82c0-.26,.21-.47,.47-.47s.47,.21,.47,.47v39.82c0,.26-.21,.47-.47,.47Z"/><path class="cls-1" d="M31.25,124.38c-.26,0-.47-.21-.47-.47v-34.45c0-.26,.21-.47,.47-.47s.47,.21,.47,.47v34.45c0,.26-.21,.47-.47,.47Z"/><path class="cls-1" d="M25.94,122.55c-.26,0-.47-.19-.47-.42v-30.71c0-.23,.21-.42,.47-.42s.47,.19,.47,.42v30.71c0,.23-.21,.42-.47,.42Z"/></svg>