<?xml version="1.0" encoding="utf-8"?>
<!-- Generator: Adobe Illustrator 26.3.1, SVG Export Plug-In . SVG Version: 6.00 Build 0)  -->
<svg version="1.1" id="Warstwa_1" xmlns="http://www.w3.org/2000/svg" xmlns:xlink="http://www.w3.org/1999/xlink" x="0px" y="0px"
	 viewBox="0 0 182 182" style="enable-background:new 0 0 182 182;" xml:space="preserve">
<style type="text/css">
	.st0{fill:#D7FF00;fill-opacity:0.3;}
</style>
<g>
	<path class="st0" d="M81.4,35.3v52.6l71.5,17.4v43.9l26.5-4V84.9L81.4,35.3z"/>
	<path class="st0" d="M42.7,65.6v-7.4l-14.4-4.5v47.6l12.8,3l40.4-16.4l-0.2-54.2L42.7,65.6z"/>
	<path d="M181.3,76.9L81.9,21.4c-0.5-0.3-1.1-0.2-1.5,0.2l-30.2,28L18.4,37.7c0,0,0,0,0,0s0,0-0.1,0c-0.1,0-0.3,0-0.4,0c0,0,0,0,0,0
		c-0.2,0-0.3,0-0.5,0.1c0,0-0.1,0-0.1,0.1C17.2,37.9,17.1,38,17,38c0,0-0.1,0.1-0.1,0.1c0,0-0.1,0.1-0.1,0.1L0.2,65.8
		C0.1,66,0,66.3,0,66.5v79.6c0,0.7,0.6,1.3,1.3,1.3c0.7,0,1.3-0.6,1.3-1.3V66.9l14-23.2v108.5c0,0.5,0.2,0.9,0.6,1.1
		c0.2,0.1,0.4,0.2,0.7,0.2c0.2,0,0.4,0,0.6-0.1l9.9-5.1c0.4-0.2,0.7-0.7,0.7-1.2v-44.5l11.3,2.7c0.1,0,0.2,0,0.3,0
		c0.2,0,0.3,0,0.5-0.1l40.1-16l70.5,17.6v42.5c0,0.4,0.2,0.8,0.5,1c0.2,0.2,0.5,0.3,0.9,0.3c0.1,0,0.1,0,0.2,0l26.2-3.9
		c0.6-0.1,1.1-0.7,1.1-1.3V86.7c0,0,0,0,0,0c0.2,0,0.5-0.1,0.7-0.2c0.4-0.2,0.6-0.7,0.6-1.1v-7.4C182,77.6,181.7,77.2,181.3,76.9
		L181.3,76.9z M81.4,24.2l97.9,54.7v4.4L81.8,32.6c-0.2-0.1-0.4-0.1-0.6-0.1c-0.3,0-0.6,0.1-0.8,0.3L44,63.8c0-2.2-0.1-4.2,0-5
		L81.4,24.2z M26.5,146.3l-7.3,3.7V40.9l28.7,10.7l-5.5,5.1l-14.2-4.7c-0.4-0.1-0.8-0.1-1.2,0.2c-0.3,0.2-0.5,0.7-0.5,1.1
		L26.5,146.3L26.5,146.3z M40.7,102.6l-11.5-2.7V55l12.2,4.1c-0.1,1.3,0,3.5,0.1,7.6c0,0.5,0.3,1,0.8,1.2c0.5,0.2,1,0.1,1.4-0.2
		l36.3-31v50.3L40.7,102.6z M154.4,147.7v-42c0-0.6-0.4-1.1-1-1.3L82.6,86.8V35.9L178,85.5v58.7L154.4,147.7L154.4,147.7z"/>
	<path d="M142.4,149.2l-58.6,8.7v-50c0-0.7-0.6-1.3-1.3-1.3c-0.7,0-1.3,0.6-1.3,1.3v49.8l-38.5-10.1c-0.7-0.2-1.4,0.2-1.6,0.9
		c-0.2,0.7,0.2,1.4,0.9,1.6l40.1,10.5c0.1,0,0.2,0,0.3,0c0.1,0,0.1,0,0.2,0l60.1-8.9c0.7-0.1,1.2-0.8,1.1-1.5
		C143.8,149.6,143.1,149.2,142.4,149.2L142.4,149.2z"/>
</g>
</svg>
