<?xml version="1.0" encoding="utf-8"?>
<!-- Generator: Adobe Illustrator 26.3.1, SVG Export Plug-In . SVG Version: 6.00 Build 0)  -->
<svg version="1.1" id="Warstwa_1" xmlns="http://www.w3.org/2000/svg" xmlns:xlink="http://www.w3.org/1999/xlink" x="0px" y="0px"
	 viewBox="0 0 182 182" style="enable-background:new 0 0 182 182;" xml:space="preserve">
<style type="text/css">
	.st0{fill:#E90A8A;fill-opacity:0.3;}
</style>
<g>
	<path class="st0" d="M165.3,105.6l0.3,51.8l-150.8-0.3l-0.1-51.2l75.4-73.6L165.3,105.6z M68.9,65.5l-40.3,39.7h56.6V65.5H68.9
		L68.9,65.5z M96.6,105.1h56.7l-40.3-39.7H96.9L96.6,105.1z M96.6,151.3l57.3-0.3v-34.1H96.6V151.3z M28.1,150.9l57.2,0.3v-34.6
		H28.1L28.1,150.9L28.1,150.9z"/>
	<path d="M182,102.9c0-0.3-0.1-0.6-0.3-0.8L90.9,14.5c-0.2-0.2-0.5-0.3-0.8-0.3c-0.3,0-0.6,0.1-0.8,0.3l-89,87.6
		c-0.2,0.2-0.3,0.5-0.3,0.8v7.1c0,0,0,0,0,0c0,0,0,0.1,0,0.1c0,0.1,0,0.2,0.1,0.3c0,0,0,0.1,0,0.1c0,0.1,0.1,0.2,0.2,0.2
		c0,0,0,0.1,0.1,0.1c0.1,0.1,0.2,0.2,0.3,0.2h0l13,4.8v40.6H8.4c-0.6,0-1.1,0.5-1.1,1.1v9.3c0,0.6,0.5,1.1,1.1,1.1h165.8
		c0.6,0,1.1-0.5,1.1-1.1v-9.3c0-0.6-0.5-1.1-1.1-1.1h-7.8v-39.6l14.9-5.8h0c0.1-0.1,0.2-0.1,0.3-0.2c0,0,0-0.1,0.1-0.1
		c0.1-0.1,0.1-0.1,0.2-0.2c0,0,0-0.1,0-0.1c0-0.1,0.1-0.2,0.1-0.3c0,0,0,0,0,0L182,102.9L182,102.9z M2.2,103.3l87.9-86.5l89.6,86.5
		v4L90.9,22.7c-0.2-0.2-0.5-0.3-0.8-0.3s-0.6,0.1-0.8,0.3L2.2,107.3V103.3L2.2,103.3z M173.1,165.7H9.6v-7.1h163.6V165.7z
		 M164.2,156.4H16v-49.9l74.1-72.9l74.1,72.9V156.4z M166.1,105.2l-75.2-74c-0.4-0.4-1.2-0.4-1.6,0l-75.2,74
		c-0.2,0.2-0.3,0.5-0.3,0.8v7.4l-10.6-3.9l87-84.5l88.8,84.6l-12.4,4.9V106C166.5,105.7,166.3,105.4,166.1,105.2L166.1,105.2z"/>
	<path d="M85.4,64.8H68.9c-0.1,0-0.1,0-0.2,0c0,0-0.1,0-0.1,0.1c0,0,0,0-0.1,0l-40.9,40c-0.2,0.2-0.2,0.4-0.1,0.6
		c0.1,0.2,0.3,0.3,0.5,0.3h57.3c0.3,0,0.6-0.3,0.6-0.5v-40C85.9,65.1,85.6,64.8,85.4,64.8L85.4,64.8z M68.4,66.7v38.1H29.4
		L68.4,66.7z M84.8,104.8H69.5V65.9h15.3V104.8L84.8,104.8z"/>
	<path d="M85.4,116.2c-22,0.2-55.3,0.3-57.1,0c-0.1,0-0.3,0-0.4,0c-0.2,0.1-0.3,0.3-0.3,0.5v34.4c0,0.3,0.3,0.5,0.6,0.5h57.3
		c0.3,0,0.6-0.3,0.6-0.5v-34.4c0-0.1-0.1-0.3-0.2-0.4C85.6,116.2,85.5,116.2,85.4,116.2z M28.6,117.3c2.3,0.2,10.4,0.3,39.7,0.1
		v33.2H28.6V117.3z M84.8,150.5H69.5v-33.2c4.6,0,9.6-0.1,15.3-0.1V150.5L84.8,150.5z"/>
	<path d="M153.9,105.9c0.2,0,0.4-0.1,0.5-0.3c0.1-0.2,0-0.4-0.1-0.6l-40.9-40c0,0,0,0-0.1,0c0,0-0.1,0-0.1-0.1c-0.1,0-0.1,0-0.2,0
		H96.6c-0.3,0-0.6,0.3-0.6,0.5v40c0,0.3,0.3,0.5,0.6,0.5H153.9z M113.6,104.8V66.7l38.9,38.1H113.6z M97.2,65.9h15.3v38.9H97.2V65.9
		z"/>
	<path d="M96.7,151.6h57.3c0.3,0,0.6-0.3,0.6-0.5v-34.4c0-0.2-0.1-0.4-0.3-0.5c-0.1,0-0.3,0-0.4,0c-1.8,0.3-35,0.1-57.1,0
		c-0.1,0-0.3,0.1-0.4,0.2c-0.1,0.1-0.2,0.2-0.2,0.4v34.4C96.1,151.4,96.4,151.6,96.7,151.6z M153.4,117.3v33.3h-39.7v-33.2
		C143,117.5,151.1,117.4,153.4,117.3z M97.2,117.3c5.6,0,10.7,0.1,15.3,0.1v33.2H97.2V117.3z"/>
</g>
</svg>
